#!OML:ASF C:\ViconDB\ViconDB\414\Spring2016\041811\Spring2016.ASF
:FULLY-SPECIFIED
:DEGREES
257
root 8.18702 17.3404 -17.5833 -176.979 -4.4459 -184.618
lowerback -4.1419 -3.03855 0.603714
upperback -1.99441 -4.25841 3.14519
thorax 0.464925 -2.19118 2.69537
lowerneck -12.6448 3.27381 -0.874632
upperneck 30.5009 9.06896 -4.25459
head 12.3736 4.36901 0.0454439
rclavicle 3.37934e-015 -7.63333e-014
rhumerus -78.418 28.2273 -107.054
rradius 93.2798
rwrist 32.9256
rhand -38.6678 2.11774
rfingers 7.12502
rthumb -11.6833 -27.5365
lclavicle 3.37934e-015 -7.63333e-014
lhumerus -94.6943 -39.9374 135.66
lradius 68.5494
lwrist -18.0629
lhand -47.2749 3.556
lfingers 7.12502
lthumb -19.9716 32.5497
rfemur 366.046 147.085 -333.462
rtibia 38.1523
rfoot -405.163 -64.3027
rtoes -28.8517
lfemur 14.4316 -6.12975 -31.6738
ltibia 17.9557
lfoot -13.6324 -19.4744
ltoes -9.62402
258
root 8.19167 17.3915 -17.8064 -176.974 -4.96429 -183.953
lowerback -4.03658 -3.21285 1.08695
upperback -2.13472 -4.52551 3.34298
thorax 0.252864 -2.3354 2.62947
lowerneck -12.6049 3.37195 -0.894693
upperneck 30.595 9.14644 -3.98515
head 12.3867 4.43551 0.160727
rclavicle 4.04527e-014 -2.8625e-014
rhumerus -78.2742 28.3196 -106.838
rradius 93.7059
rwrist 32.8842
rhand -38.1636 2.29712
rfingers 7.12502
rthumb -11.1971 -27.3841
lclavicle 4.04527e-014 -2.8625e-014
lhumerus -94.7248 -39.3327 135.907
lradius 68.3064
lwrist -17.249
lhand -47.3874 3.194
lfingers 7.12502
lthumb -20.0797 32.1764
rfemur 364.937 146.674 -333.237
rtibia 38.4374
rfoot -404.772 -63.7648
rtoes -28.7037
lfemur 14.2506 -6.12312 -30.6317
ltibia 19.26
lfoot -11.7744 -19.7395
ltoes -9.90009
259
root 8.19729 17.4519 -18.0331 -176.951 -5.37887 -183.168
lowerback -4.11171 -3.35977 1.62802
upperback -2.20614 -4.76847 3.57099
thorax 0.206745 -2.47031 2.55067
lowerneck -12.6378 3.45353 -0.708326
upperneck 30.7193 9.22484 -3.92739
head 12.4503 4.49698 0.166306
rclavicle 7.87187e-014 -3.65764e-014
rhumerus -78.1243 28.4803 -106.663
rradius 94.1603
rwrist 32.9145
rhand -37.6788 2.3243
rfingers 7.12502
rthumb -10.7295 -27.3817
lclavicle 7.87187e-014 -3.65764e-014
lhumerus -94.6161 -38.6295 135.865
lradius 67.971
lwrist -17.7399
lhand -48.0546 4.26346
lfingers 7.12502
lthumb -20.7208 33.1772
rfemur 363.917 146.395 -332.879
rtibia 38.6077
rfoot -404.509 -63.0458
rtoes -29.3081
lfemur 13.7455 -5.8264 -29.3132
ltibia 20.9803
lfoot -9.50938 -20.255
ltoes -10.0161
260
root 8.20294 17.5102 -18.2573 -176.994 -5.73825 -182.54
lowerback -4.05019 -3.47381 2.0397
upperback -2.3206 -4.94875 3.702
thorax 0.038127 -2.57138 2.45913
lowerneck -12.4865 3.60633 -0.401306
upperneck 30.8457 9.34286 -3.73541
head 12.4735 4.61615 0.201633
rclavicle 6.19214e-014 -9.70069e-014
rhumerus -78.0717 28.5092 -106.54
rradius 94.5402
rwrist 33.1588
rhand -36.9982 2.08259
rfingers 7.12502
rthumb -10.0729 -27.6563
lclavicle 6.19214e-014 -9.70069e-014
lhumerus -94.7803 -38.2637 136.097
lradius 68.0331
lwrist -16.6829
lhand -48.112 3.63691
lfingers 7.12502
lthumb -20.7761 32.5447
rfemur 362.929 146.091 -332.659
rtibia 38.6535
rfoot -404.779 -62.2026
rtoes -30.4626
lfemur 13.0288 -5.16231 -28.0259
ltibia 23.0842
lfoot -7.00339 -20.6158
ltoes -9.9677
261
root 8.20931 17.5715 -18.4808 -176.868 -6.04288 -181.77
lowerback -4.22766 -3.49664 2.62611
upperback -2.46139 -5.03127 3.84132
thorax -0.0425006 -2.62905 2.26898
lowerneck -12.5884 3.59171 -0.552423
upperneck 31.2334 9.16355 -2.93675
head 12.5901 4.6152 0.51218
rclavicle 3.83654e-014 -7.63333e-014
rhumerus -77.9937 28.3784 -106.295
rradius 95.0176
rwrist 33.1565
rhand -36.2285 2.1004
rfingers 7.12502
rthumb -9.33032 -27.6731
lclavicle 3.83654e-014 -7.63333e-014
lhumerus -95.0103 -38.0326 136.341
lradius 68.1709
lwrist -16.3227
lhand -48.12 3.93852
lfingers 7.12502
lthumb -20.7837 32.8454
rfemur 362.357 145.294 -331.849
rtibia 38.6263
rfoot -405.812 -61.308
rtoes -31.1344
lfemur 11.7209 -4.09047 -26.384
ltibia 25.5997
lfoot -3.77584 -21.3666
ltoes -9.53314
262
root 8.22131 17.6277 -18.7017 -176.883 -6.31052 -181.235
lowerback -4.18656 -3.47945 2.90328
upperback -2.60058 -5.02703 3.91067
thorax -0.225888 -2.63763 2.19735
lowerneck -12.6663 3.50847 -0.983384
upperneck 31.7204 8.91281 -1.89977
head 12.7176 4.5915 0.955355
rclavicle -1.77912e-014 -5.56597e-014
rhumerus -78.0356 28.1489 -106.138
rradius 95.3012
rwrist 33.5083
rhand -35.2287 2.02401
rfingers 7.12502
rthumb -8.36549 -27.7903
lclavicle -1.77912e-014 -5.56597e-014
lhumerus -95.4365 -37.9099 136.779
lradius 68.421
lwrist -15.6114
lhand -48.2921 3.64669
lfingers 7.12502
lthumb -20.9491 32.5354
rfemur 361.676 144.094 -331.208
rtibia 38.5963
rfoot -407.379 -60.4006
rtoes -31.3522
lfemur 10.3187 -2.97465 -24.9765
ltibia 28.4356
lfoot -0.270074 -21.7467
ltoes -8.8299
263
root 8.23505 17.6819 -18.9207 -176.933 -6.51242 -180.754
lowerback -4.1139 -3.45377 3.09259
upperback -2.72816 -4.99861 3.90726
thorax -0.414453 -2.63101 2.10235
lowerneck -12.6452 3.46375 -0.836173
upperneck 32.2122 8.74392 -1.31453
head 12.8865 4.6267 1.14627
rclavicle 8.17999e-014 -6.67916e-014
rhumerus -78.1395 28.0143 -106.076
rradius 95.5463
rwrist 33.4749
rhand -33.7144 2.52314
rfingers 7.12502
rthumb -6.9039 -27.3443
lclavicle 8.17999e-014 -6.67916e-014
lhumerus -95.6617 -37.8867 136.901
lradius 68.5348
lwrist -15.6323
lhand -48.245 3.48389
lfingers 7.12502
lthumb -20.9038 32.3776
rfemur 360.955 142.839 -330.62
rtibia 38.5807
rfoot -409.111 -59.4583
rtoes -31.674
lfemur 8.63684 -1.55139 -23.5438
ltibia 31.5732
lfoot 3.31755 -22.1064
ltoes -9.10756
